<?xml version='1.0' encoding='utf-8'?>
<svg xmlns="http://www.w3.org/2000/svg" width="12.0" height="12.0" viewBox="0.0 0.0 12.0 12.0">
  <!--GFx vector shapes: 109, 117-->
  <g transform="matrix(1 0 0 1 0 0)">
    <path d="M12.0 6.0 Q12.0 8.5 10.25 10.25 8.5 12.0 6.0 12.0 3.5 12.0 1.75 10.25 0.0 8.5 0.0 6.0 0.0 3.5 1.75 1.75 3.5 0.0 6.0 0.0 8.5 0.0 10.25 1.75 12.0 3.5 12.0 6.0 M9.5 2.45 Q8.05 1.0 6.0 1.0 3.95 1.0 2.45 2.45 1.0 3.95 1.0 6.0 1.0 8.05 2.45 9.5 3.95 11.0 6.0 11.0 8.05 11.0 9.5 9.5 11.0 8.05 11.0 6.0 11.0 3.95 9.5 2.45" fill="#727272" fill-rule="evenodd" stroke="none" />
    <path d="M10.0 6.0 Q10.0 4.35 8.8 3.15 7.65 2.0 6.0 2.0 4.35 2.0 3.15 3.15 2.0 4.35 2.0 6.0 2.0 7.65 3.15 8.8 4.35 10.0 6.0 10.0 7.65 10.0 8.8 8.8 10.0 7.65 10.0 6.0 M9.5 2.45 Q11.0 3.95 11.0 6.0 11.0 8.05 9.5 9.5 8.05 11.0 6.0 11.0 3.95 11.0 2.45 9.5 1.0 8.05 1.0 6.0 1.0 3.95 2.45 2.45 3.95 1.0 6.0 1.0 8.05 1.0 9.5 2.45" fill="#f2f2f2" fill-rule="evenodd" stroke="none" />
    <path d="M10.0 6.0 Q10.0 7.65 8.8 8.8 7.65 10.0 6.0 10.0 4.35 10.0 3.15 8.8 2.0 7.65 2.0 6.0 2.0 4.35 3.15 3.15 4.35 2.0 6.0 2.0 7.65 2.0 8.8 3.15 10.0 4.35 10.0 6.0" fill="url(#gradient0)" fill-rule="evenodd" stroke="none" />
  </g>
  <defs>
    <linearGradient gradientTransform="matrix(0.0 0.0048828125 -0.0048828125 0.0 6.0 6.0)" gradientUnits="userSpaceOnUse" id="gradient0" spreadMethod="pad" x1="-819.2" x2="819.2">
      <stop offset="0.0" stop-color="#cccccc" />
      <stop offset="1.0" stop-color="#e6e6e6" />
    </linearGradient>
  </defs>
  <g transform="matrix(1 0 0 1 0 0)">
    <path d="M4.05 6.5 L4.0 6.0 Q4.0 5.15 4.55 4.55 5.15 4.0 6.0 4.0 6.85 4.0 7.4 4.55 8.0 5.15 8.0 6.0 L7.95 6.5 7.4 7.4 Q6.85 8.0 6.0 8.0 5.15 8.0 4.55 7.4 4.15 7.0 4.05 6.5" fill="#4d4d4d" fill-rule="evenodd" stroke="none" />
    <path d="M7.95 6.5 L8.0 7.0 Q8.0 7.85 7.4 8.4 6.85 9.0 6.0 9.0 5.15 9.0 4.55 8.4 4.0 7.85 4.0 7.0 L4.05 6.5 Q4.15 7.0 4.55 7.4 5.15 8.0 6.0 8.0 6.85 8.0 7.4 7.4 L7.95 6.5" fill="#f2f2f2" fill-rule="evenodd" stroke="none" />
  </g>
</svg>